HIERARCHY
ROOT Hips
{
  OFFSET 42.1613 89.284 -200.418
  CHANNELS 6 Xposition Yposition Zposition Zrotation Xrotation Yrotation
  JOINT ToSpine
  {
    OFFSET -0.0105055 1.38907 -7.13956
    CHANNELS 3 Zrotation Xrotation Yrotation
    JOINT Spine
    {
      OFFSET 0.0105055 10 1
      CHANNELS 3 Zrotation Xrotation Yrotation
      JOINT Spine1
      {
        OFFSET 0 12 1.60637
        CHANNELS 3 Zrotation Xrotation Yrotation
        JOINT Neck
        {
          OFFSET 0 27 2.26658
          CHANNELS 3 Zrotation Xrotation Yrotation
          JOINT Head
          {
            OFFSET 0 9 2.12705
            CHANNELS 3 Zrotation Xrotation Yrotation
            End Site
            {
              OFFSET 0 11 2
            }
          }
        }
        JOINT LeftShoulder
        {
          OFFSET 8 19.6109 2.86452
          CHANNELS 3 Zrotation Xrotation Yrotation
          JOINT LeftArm
          {
            OFFSET 12 1 0.681055
            CHANNELS 3 Zrotation Xrotation Yrotation
            JOINT LeftForeArm
            {
              OFFSET 19 0 -1.52608
              CHANNELS 3 Zrotation Xrotation Yrotation
              JOINT LeftHand
              {
                OFFSET 23 0 0
                CHANNELS 3 Zrotation Xrotation Yrotation
                End Site
                {
                  OFFSET 10 0 0
                }
              }
            }
          }
        }
        JOINT RightShoulder
        {
          OFFSET -8 19.6109 2.86452
          CHANNELS 3 Zrotation Xrotation Yrotation
          JOINT RightArm
          {
            OFFSET -12 1 0.681055
            CHANNELS 3 Zrotation Xrotation Yrotation
            JOINT RightForeArm
            {
              OFFSET -19 0 -1.52608
              CHANNELS 3 Zrotation Xrotation Yrotation
              JOINT RightHand
              {
                OFFSET -23 0 0
                CHANNELS 3 Zrotation Xrotation Yrotation
                End Site
                {
                  OFFSET -10 0 0
                }
              }
            }
          }
        }
      }
    }
  }
  JOINT LeftUpLeg
  {
    OFFSET 9 -7.17245 0
    CHANNELS 3 Zrotation Xrotation Yrotation
    JOINT LeftLeg
    {
      OFFSET 0 -44.1113 0
      CHANNELS 3 Zrotation Xrotation Yrotation
      JOINT LeftFoot
      {
        OFFSET 0 -36.1829 0
        CHANNELS 3 Zrotation Xrotation Yrotation
        JOINT LeftToeBase
        {
          OFFSET 0 -4.84184 13
          CHANNELS 3 Zrotation Xrotation Yrotation
          End Site
          {
            OFFSET 0 1 6
          }
        }
      }
    }
  }
  JOINT RightUpLeg
  {
    OFFSET -9 -7.17245 0
    CHANNELS 3 Zrotation Xrotation Yrotation
    JOINT RightLeg
    {
      OFFSET 0 -44.0551 0
      CHANNELS 3 Zrotation Xrotation Yrotation
      JOINT RightFoot
      {
        OFFSET 0 -36.1469 0
        CHANNELS 3 Zrotation Xrotation Yrotation
        JOINT RightToeBase
        {
          OFFSET 0 -4.92256 13
          CHANNELS 3 Zrotation Xrotation Yrotation
          End Site
          {
            OFFSET 0 1 6
          }
        }
      }
    }
  }
}
MOTION
Frames:	14
Frame Time:	0.0333333
-46.642 83.3566 16.8057 9.94724 -15.0327 -93.7492 0 0 0 4.70468 8.91911 -0.320203 -17.5719 -1.16435 3.16572 -3.2432 -16.5277 -2.52124 8.87665 -0.0235066 -4.85818 -27.9315 3.24768 -6.03049 -10.9684 -4.41607 -22.9112 29.5401 -12.2999 -110.602 -8.7753 0.290552 -3.80786 17.6962 5.17004 17.5233 50.9838 17.7856 -22.7377 -9.94191 1.80496 79.8129 3.66661 0.315187 9.78979 10.1772 -2.26756 1.13399 0.646089 65.1056 -27.3226 17.3785 2.70652 -0.390077 1.8412 -26.2743 -1.20322 9.72945 -30.1607 -26.3275 0.0262978 47.1053 0.981518 -33.0315 -33.0834 -10.2158 -0.395999 0.364915 2.34895 
-52.6027 82.1137 17.4201 8.1599 -16.2766 -99.3811 0 0 0 4.94063 10.7024 1.88993 -16.3034 -1.50741 5.00987 -7.37969 -14.0466 -5.57032 8.47572 -2.30016 -8.31149 -32.993 3.497 -5.43896 -10.7741 4.51495 -12.0039 28.9138 -10.5044 -108.266 -9.20448 0.255075 -3.16691 18.1197 4.8545 15.9366 45.8026 14.0181 -13.8587 -11.7502 1.53375 82.6675 2.92251 0.236368 9.22689 9.81684 -10.7634 3.07642 7.8835 85.2769 -19.9934 20.9213 -4.36371 0.790433 1.75115 -24.8492 -1.15901 10.2622 -24.3806 -21.2962 -0.0787749 49.5457 -1.04591 -41.867 -37.7947 -14.9013 1.37831 -4.89014 -1.15211 
-58.3742 81.2184 18.0592 7.36006 -16.4154 -107.829 0 0 0 6.95587 12.0861 4.05597 -16.637 -0.320523 7.45308 -10.3266 -16.5731 -6.6687 7.50397 -2.97369 -9.34174 -35.9256 3.54852 -4.92964 -16.3746 8.6587 3.8881 30.2368 -10.1201 -106.776 -10.0196 0.301942 -3.43636 17.2616 4.37889 14.6449 39.7276 9.31688 -0.269666 -12.5881 0.677089 86.9708 3.08841 0.226689 8.48585 11.1673 -21.7991 7.49128 -179.515 78.5211 -178.992 26.7209 -12.3169 2.98425 1.58613 -22.812 -0.387899 10.964 -19.8741 -14.857 0.0512615 52.4151 -1.96878 -42.8409 -41.2395 -16.7639 1.83345 -6.81891 -0.471339 
-64.795 81.1096 17.9923 7.70066 -17.4667 -114.943 0 0 0 8.88586 12.1937 5.12871 -19.2375 1.6121 9.5545 -10.5995 -21.3623 -7.35625 6.85024 -1.32933 -9.4434 -36.0858 3.20688 -4.08557 -24.7958 8.08008 21.7104 33.3137 -12.7267 -108.531 -10.1558 0.363827 -4.1005 15.9471 4.35627 15.5096 35.3631 1.58473 12.1595 -12.7753 -0.317625 91.4005 4.2002 0.269879 7.33853 12.5912 -35.3124 10.3423 -179.512 70.3898 -175.819 33.3622 -18.2177 5.49542 1.52893 -22.588 0.525271 8.80164 -14.9757 -11.7619 0.0344744 51.9442 1.01264 -40.9533 -44.4261 -17.3317 2.29474 -8.66947 0.439513 
-72.1771 81.8409 16.7091 7.70441 -19.4707 -119.362 0 0 0 11.1765 12.416 6.03941 -23.855 1.98336 11.8781 -9.9753 -22.9602 -8.8677 6.84317 -0.591391 -10.604 -35.038 2.7072 -3.0707 -32.1116 7.49994 35.9907 33.5715 -15.4788 -111.906 -9.57945 0.401197 -4.78564 14.3821 4.40529 16.9875 32.9255 -5.26704 20.015 -11.0034 -0.957197 94.9105 3.96856 0.259436 7.5466 12.6376 -48.2232 11.3048 179.991 71.4663 -177.57 34.397 -20.8562 6.51655 1.58306 -23.5115 1.54047 4.58821 -8.45327 -11.7338 -0.175002 47.0088 5.82821 -36.4319 -43.7598 -15.0222 2.65153 -9.9687 0.878347 
-80.6618 83.3877 13.6546 6.82059 -21.2898 -122.34 0 0 0 11.7133 12.6915 8.11364 -27.0419 1.71376 14.7299 -9.46941 -22.344 -11.6193 5.99133 -1.13487 -12.9576 -33.1084 2.52765 -2.94556 -37.5847 7.72037 44.8621 32.7369 -16.3127 -113.6 -9.10609 0.414946 -5.2073 12.2806 4.00389 16.9329 32.4087 -9.40819 23.0148 -10.4721 -1.78066 99.543 2.71405 0.188752 7.88301 10.8509 -56.5412 11.4979 -179.733 80.777 -179.705 30.8004 -22.883 6.36038 1.52238 -22.0317 -0.774696 0.809913 0.494354 -9.77184 0.253716 36.6438 7.19592 -25.6611 -37.2774 -8.90483 3.52144 -13.5604 6.82262 
-89.6472 85.2009 9.23357 5.7361 -22.5398 -124.398 0 0 0 11.6374 12.8256 10.6023 -29.9114 1.46328 17.6763 -9.03789 -23.9371 -15.1388 5.53147 1.05508 -15.9402 -30.0173 2.74317 -4.10666 -41.1902 6.74757 49.2565 34.6958 -17.43 -113.396 -9.03983 0.459021 -5.79621 9.56784 3.23291 15.3734 34.8067 -11.0101 22.2717 -11.2827 -3.13281 105.319 2.14727 0.141541 7.53573 8.46269 -59.563 11.8256 0.590617 84.7873 -3.21362 27.6503 -24.8416 6.19538 1.47052 -19.055 -2.15889 -1.90194 9.61913 -7.257 -0.553824 24.306 7.56784 -17.6937 -18.877 -2.93817 6.64433 -21.2103 8.52424 
-98.5913 86.4665 4.35025 5.48799 -24.0473 -125.563 0 0 0 11.4152 11.4323 12.5218 -32.9354 1.61194 19.8142 -7.35943 -26.7825 -17.5588 4.97026 3.79281 -17.5831 -27.3375 3.06685 -5.64732 -42.3259 5.73419 49.825 35.3115 -18.2792 -113.883 -8.50896 0.460329 -6.17843 7.53214 2.68488 14.1404 37.5455 -10.7809 20.5006 -12.0743 -4.31154 109.364 1.70999 0.117662 7.95614 5.63764 -59.7523 12.649 0.283145 69.1507 -8.28426 23.5188 -22.25 4.72077 1.27737 -17.4708 -1.09659 -3.25286 14.5914 -5.01536 -1.55482 19.232 7.29159 -21.2602 -1.64367 -0.214494 4.35298 -17.1277 -0.558037 
-106.996 86.5441 -0.486033 6.10921 -24.6525 -125.772 0 0 0 10.2613 10.0352 13.307 -33.2085 1.24677 19.8926 -4.20674 -30.1047 -18.4492 3.0189 4.85897 -17.4759 -27.8645 3.31831 -6.24421 -40.4866 6.71898 45.4923 34.8866 -18.5461 -114.521 -7.25087 0.408513 -6.43756 8.4888 2.77603 13.794 38.614 -8.63045 18.501 -11.8403 -4.57222 110.819 0.329502 0.0249102 8.28939 4.21978 -57.712 15.7005 -0.0520348 55.3506 -12.982 17.9132 -18.5463 2.87263 1.29451 -17.8211 -0.803496 -2.13275 14.4138 0.0319765 -1.63358 27.7302 0.707044 -28.7631 -1.08483 -0.383026 3.89413 -14.0627 -6.4164 
-114.442 86.9393 -5.3568 4.86665 -23.0292 -125.412 0 0 0 7.38745 10.5796 12.0311 -30.0895 2.20755 18.1696 -0.648788 -32.4224 -17.6751 1.30018 4.01403 -16.1249 -31.4246 3.61597 -6.12781 -36.016 9.72347 35.2585 33.5691 -17.327 -114.17 -7.66222 0.39749 -5.98928 12.4342 3.59996 14.7113 39.5998 -5.17324 14.2866 -11.3076 -3.77722 108.235 -0.822417 -0.0600811 8.26008 2.45993 -51.5183 14.6598 0.0257356 46.3857 -18.1739 3.77801 -13.7173 0.684435 0.861619 -9.65545 -2.00304 0.392897 12.2353 0.323396 0.580151 45.1184 -3.47445 -30.8047 -5.36225 -1.44885 4.6949 -18.165 -6.0023 
-121.947 86.7165 -10.1049 2.76066 -19.8026 -123.682 0 0 0 4.64267 12.1641 8.91472 -24.0449 2.27449 14.1913 2.59578 -29.5157 -15.0367 1.23383 1.3657 -13.8404 -35.0878 4.03595 -6.27673 -30.8541 14.4119 19.6653 32.0107 -14.3485 -111.625 -8.53406 0.372959 -4.95491 16.3228 4.52624 15.9608 43.1925 -1.02428 7.4572 -12.19 -2.23579 100.237 -1.17597 -0.0722468 7.12531 1.3571 -44.9278 9.31882 0.101203 49.8011 -20.006 -4.13475 -14.2704 -0.486865 1.60429 -9.59245 -5.27939 2.8163 8.43062 -5.18617 0.481119 67.1181 -1.51204 -29.9463 -8.79412 -2.35141 4.43381 -16.8103 -3.78081 
-129.557 85.6955 -14.502 1.01337 -18.865 -121.922 0 0 0 0.465768 13.3176 5.57084 -17.538 0.5081 9.00641 5.63772 -25.5222 -12.2863 1.45003 -0.771627 -11.2226 -36.0144 4.24963 -6.55809 -23.3615 19.2486 -3.53502 31.177 -10.9315 -107.401 -9.04468 0.238062 -3.08069 20.2103 5.37167 16.4343 47.3753 2.08611 -1.45301 -13.8543 -0.535848 92.1716 -2.22413 -0.127081 6.39698 -1.21859 -39.0089 5.02271 -0.0258043 56.4453 -19.3752 -1.29225 -23.5215 -0.314999 1.83076 -15.477 -7.81833 1.5919 0.0529093 -9.43259 -162.113 89.1067 158.346 -32.575 -15.3956 -4.55534 4.28083 -16.1602 -3.73387 
-136.675 85.92 -19.0421 -0.390809 -19.0417 -122.681 0 0 0 -3.05577 13.7399 2.99016 -13.581 0.336941 5.45857 7.98132 -24.4218 -9.80777 0.986682 -0.837012 -8.62032 -32.51 4.25554 -7.5314 -15.8246 18.1763 -28.8539 31.9096 -7.76431 -102.241 -9.51386 0.160584 -1.90634 22.171 5.58134 15.9067 52.0614 2.11966 -13.1624 -16.0134 -0.534148 91.8605 -1.65617 -0.0988677 6.56394 -2.35125 -30.4123 4.82113 -0.0282258 54.9784 -19.6157 0.865987 -29.1665 0.235473 1.90148 -16.4367 -8.13844 -1.71336 -12.5311 -10.4781 -179.667 71.194 168.2 -35.8674 -21.1067 -6.89343 4.07271 -15.3284 -5.04128 
-143.864 86.2676 -23.7203 0.885911 -16.9375 -125.047 0 0 0 -1.78083 13.6967 0.300747 -10.5894 -0.522869 2.2346 8.08354 -23.287 -6.31855 1.18664 0.056841 -5.37604 -27.3372 4.14004 -8.828 -13.4087 10.3776 -43.887 32.9331 -5.56606 -98.5161 -8.92489 0.246735 -3.16497 19.9362 4.75073 14.3182 57.8531 3.38484 -25.2423 -17.2469 -1.74955 95.6166 0.850378 0.0548052 6.89218 1.27372 -21.6126 8.34013 -0.0128589 51.4822 -20.3166 3.74868 -33.0634 1.12523 1.94429 -18.6702 -8.63833 -1.06457 -28.5016 -8.38689 179.78 62.9199 161.455 -36.9202 -23.4932 -7.93681 4.32567 -16.5288 -5.6006 
